<?xml version="1.0" encoding="UTF-8" standalone="no"?>
<!DOCTYPE svg PUBLIC "-//W3C//DTD SVG 1.1//EN" "http://www.w3.org/Graphics/SVG/1.1/DTD/svg11.dtd">
<svg width="100%" height="100%" viewBox="0 0 863 478" version="1.1" xmlns="http://www.w3.org/2000/svg" xmlns:xlink="http://www.w3.org/1999/xlink" xml:space="preserve" xmlns:serif="http://www.serif.com/" style="fill-rule:evenodd;clip-rule:evenodd;stroke-linejoin:round;stroke-miterlimit:2;">
    <g transform="matrix(1,0,0,1,-2524.976433,-60.646531)">
        <g id="Full-Logo--White-" serif:id="Full Logo (White)" transform="matrix(1,0,0,1,931,17)">
            <g transform="matrix(0.462843,0,0,-0.462843,0.607427,295.252434)">
                <path d="M4838.375,173.52C4837.418,176.192 4823.496,176.481 4820.965,176.84C4807.586,178.743 4782.688,182.2 4769.922,186.629C4666.43,216.883 4575.922,316.836 4592.805,462.828C4629.348,464.133 4657.336,461.223 4685.496,451.754C4658.488,313.36 4705.453,257.539 4853.418,195.071C4856.629,193.715 4845.184,186.727 4842.801,183.18C4842.344,182.496 4838.75,172.465 4838.375,173.52Z" style="fill:rgb(0,93,1);fill-rule:nonzero;"/>
            </g>
            <g transform="matrix(0.462843,0,0,-0.462843,0.607427,196.265101)">
                <path d="M4870.895,0.457C4874.312,1.292 4860.703,45.207 4856.633,60.058C4842.496,111.644 4815.734,179.246 4754.105,208.601C4681.219,243.316 4648.082,238.042 4592.781,248.8C4639.734,333.437 4901.223,433.742 4893.965,79.132C4893.25,44.089 4888.973,1.902 4887.672,-8.758C4887.395,-11.012 4870.52,0.363 4870.895,0.457Z" style="fill:rgb(0,158,1);fill-rule:nonzero;"/>
            </g>
            <g transform="matrix(0.462843,0,0,-0.462843,0.607427,456.424593)">
                <path d="M4836.82,504.437C4836.895,504.488 4819.555,502.613 4815.66,501.34C4802.219,496.945 4795.551,487.707 4783.863,479.804C4776.168,474.601 4764.402,469.789 4755.668,466.425C4721.66,453.328 4692.852,465.175 4659.848,475.761C4649.219,479.172 4627.613,483.207 4625.434,484.488C4621.172,487.004 4639.391,495.023 4641.41,495.832C4662.707,504.347 4684.961,518.136 4707.629,521.675C4749.758,528.258 4791.406,531.492 4833.879,524.492C4839.145,523.625 4840.062,521.203 4840.41,519.609C4840.586,518.793 4836.801,504.422 4836.82,504.437Z" style="fill:rgb(0,158,1);fill-rule:nonzero;"/>
            </g>
            <g transform="matrix(0.462843,0,0,-0.462843,0.607427,553.733657)">
                <path d="M4887.383,683.097C4886.191,682.601 4900.855,660.171 4904.25,654.753C4913.121,640.593 4936.285,583.042 4947.02,567.535C4961.699,546.332 4974.543,527.347 5013.398,513.746C5037.422,505.332 5108.152,497.074 5111.902,503.433C5116.234,510.773 5068.66,568.222 5046.016,581.578C5024.328,594.371 5020.227,599.289 4998.098,612.398C4979.055,623.683 4947.594,648.015 4932.098,663.726C4921.906,674.054 4909.238,686.988 4902.375,697.988" style="fill:rgb(0,158,1);fill-rule:nonzero;"/>
            </g>
            <g transform="matrix(0.462843,0,0,-0.462843,0.607427,511.423315)">
                <path d="M4902.418,605.804C4904.016,602.152 4951.324,577.269 4965.309,569.07C4976.336,562.601 5027.789,536.539 5042.93,530.953C5062.102,523.886 5080.406,514.664 5100.051,508.949C5119.793,503.21 5222.277,473.906 5237.273,498.933C5245.438,512.558 5218.414,629.742 5212.762,624.699C5199.121,612.531 5147.84,568.632 5087.598,569.168C5038.188,569.605 4992.91,591.753 4948.543,611.316C4937.605,616.136 4925.633,623.671 4914.609,627.996" style="fill:rgb(0,93,1);fill-rule:nonzero;"/>
            </g>
            <g transform="matrix(0.462843,0,0,-0.462843,0.607427,382.469204)">
                <path d="M4918.621,361.144C4918.328,360.687 4925,361.914 4926.199,362.176C4930.312,363.07 4969.195,370.105 4983.25,373.515C5163.574,417.265 5180.492,376.625 5210.465,334.109C5233.918,300.84 5235.152,252.25 5237.129,220.121C5419.168,489.285 5219.191,604.914 4915.148,381.172" style="fill:rgb(0,158,1);fill-rule:nonzero;"/>
            </g>
            <g transform="matrix(0.462843,0,0,-0.462843,0.607427,435.162505)">
                <path d="M4842.066,487.273C4835.965,483.62 4832.215,458.105 4836.707,451.691C4849.273,433.737 4878.367,418.523 4895.766,430.581C4908.258,439.237 4916.301,458.96 4918.66,476.687C4920.355,489.425 4915.969,504.034 4889.281,513.222C4875.086,518.105 4870.797,520.359 4859.859,508.984" style="fill:rgb(0,158,1);fill-rule:nonzero;"/>
            </g>
            <g transform="matrix(5.684902,0,0,5.684902,-6205.575129,-8278.786616)">
                <g transform="matrix(50,0,0,50,1372.253099,1527.555724)">
                    <path d="M0.099,0.015C0.088,0.015 0.078,0.013 0.069,0.008C0.06,0.003 0.058,-0.005 0.061,-0.016L0.16,-0.408C0.162,-0.419 0.162,-0.427 0.159,-0.433C0.155,-0.44 0.15,-0.443 0.142,-0.443C0.135,-0.443 0.127,-0.441 0.119,-0.436C0.111,-0.431 0.102,-0.424 0.093,-0.414C0.084,-0.404 0.073,-0.39 0.06,-0.373C0.053,-0.364 0.047,-0.358 0.04,-0.356C0.033,-0.354 0.025,-0.355 0.014,-0.36C0.001,-0.367 -0.005,-0.374 -0.005,-0.382C-0.006,-0.389 -0.004,-0.397 0.001,-0.406C0.014,-0.427 0.028,-0.446 0.043,-0.463C0.058,-0.48 0.074,-0.493 0.093,-0.503C0.112,-0.513 0.133,-0.518 0.158,-0.518C0.179,-0.518 0.196,-0.514 0.208,-0.507C0.221,-0.5 0.23,-0.49 0.235,-0.478C0.24,-0.465 0.242,-0.452 0.242,-0.437C0.242,-0.422 0.241,-0.408 0.239,-0.394L0.227,-0.342C0.243,-0.371 0.259,-0.397 0.276,-0.419C0.292,-0.441 0.308,-0.46 0.325,-0.475C0.342,-0.49 0.357,-0.501 0.372,-0.508C0.388,-0.515 0.402,-0.519 0.415,-0.519C0.428,-0.519 0.437,-0.515 0.442,-0.507C0.447,-0.499 0.449,-0.49 0.448,-0.479C0.447,-0.468 0.442,-0.459 0.434,-0.451C0.427,-0.443 0.417,-0.439 0.404,-0.439C0.391,-0.439 0.375,-0.431 0.356,-0.416C0.337,-0.4 0.316,-0.378 0.294,-0.349C0.272,-0.32 0.25,-0.285 0.229,-0.244C0.207,-0.204 0.187,-0.16 0.17,-0.111L0.146,-0.011C0.144,-0.002 0.14,0.004 0.133,0.009C0.126,0.013 0.114,0.015 0.099,0.015Z" style="fill:white;fill-rule:nonzero;"/>
                </g>
                <g transform="matrix(50,0,0,50,1392.453099,1527.555724)">
                    <path d="M0.069,-0.361C0.051,-0.361 0.036,-0.364 0.022,-0.371C0.009,-0.379 -0.001,-0.389 -0.008,-0.402C-0.015,-0.415 -0.02,-0.431 -0.021,-0.448L0.008,-0.519C0.022,-0.519 0.033,-0.516 0.04,-0.51C0.047,-0.504 0.05,-0.493 0.05,-0.477C0.05,-0.467 0.051,-0.459 0.053,-0.453C0.055,-0.446 0.058,-0.441 0.061,-0.438C0.064,-0.434 0.069,-0.431 0.073,-0.43C0.079,-0.429 0.084,-0.428 0.09,-0.428C0.1,-0.428 0.112,-0.431 0.126,-0.437C0.139,-0.443 0.154,-0.452 0.169,-0.463C0.184,-0.474 0.2,-0.488 0.216,-0.504C0.222,-0.51 0.228,-0.511 0.235,-0.506C0.242,-0.501 0.247,-0.493 0.25,-0.484C0.253,-0.476 0.252,-0.468 0.246,-0.462C0.226,-0.441 0.206,-0.422 0.187,-0.407C0.168,-0.392 0.148,-0.38 0.129,-0.372C0.11,-0.365 0.09,-0.361 0.069,-0.361Z" style="fill:white;fill-rule:nonzero;"/>
                </g>
                <g transform="matrix(50,0,0,50,1393.553099,1527.555724)">
                </g>
                <g transform="matrix(50,0,0,50,1393.553099,1527.555724)">
                </g>
                <g transform="matrix(50,0,0,50,1393.553099,1527.555724)">
                    <path d="M0.21,0.407C0.173,0.407 0.142,0.397 0.12,0.378C0.097,0.358 0.085,0.332 0.085,0.301C0.085,0.28 0.089,0.26 0.098,0.24C0.107,0.222 0.119,0.203 0.136,0.184C0.153,0.166 0.173,0.148 0.198,0.13C0.223,0.111 0.251,0.092 0.282,0.073C0.295,0.065 0.307,0.057 0.32,0.05C0.333,0.042 0.345,0.034 0.358,0.026C0.371,0.019 0.383,0.011 0.396,0.004L0.437,-0.159C0.42,-0.13 0.402,-0.105 0.383,-0.084C0.363,-0.062 0.344,-0.044 0.324,-0.029C0.304,-0.013 0.284,-0.002 0.264,0.005C0.244,0.012 0.224,0.016 0.203,0.016C0.172,0.016 0.146,0.009 0.128,-0.005C0.108,-0.02 0.096,-0.041 0.091,-0.07C0.087,-0.099 0.089,-0.134 0.1,-0.175L0.178,-0.484C0.181,-0.497 0.186,-0.505 0.193,-0.509C0.2,-0.513 0.209,-0.515 0.222,-0.515C0.241,-0.515 0.254,-0.512 0.26,-0.506C0.266,-0.5 0.267,-0.491 0.264,-0.479L0.183,-0.163C0.178,-0.143 0.175,-0.126 0.176,-0.111C0.177,-0.095 0.181,-0.084 0.19,-0.075C0.198,-0.067 0.212,-0.063 0.231,-0.063C0.252,-0.063 0.275,-0.071 0.298,-0.088C0.322,-0.104 0.346,-0.127 0.369,-0.155C0.392,-0.184 0.415,-0.219 0.437,-0.259C0.459,-0.299 0.479,-0.343 0.497,-0.39L0.517,-0.484C0.521,-0.497 0.526,-0.505 0.532,-0.509C0.539,-0.513 0.549,-0.515 0.562,-0.515C0.581,-0.515 0.594,-0.512 0.6,-0.506C0.606,-0.5 0.607,-0.491 0.604,-0.479L0.448,0.142C0.436,0.189 0.422,0.229 0.407,0.262C0.392,0.295 0.374,0.323 0.355,0.345C0.337,0.366 0.315,0.382 0.29,0.392C0.266,0.402 0.239,0.407 0.21,0.407ZM0.223,0.329C0.243,0.329 0.262,0.322 0.279,0.309C0.296,0.296 0.311,0.275 0.325,0.247C0.339,0.219 0.352,0.183 0.363,0.139L0.371,0.101C0.364,0.106 0.356,0.11 0.349,0.115C0.341,0.12 0.333,0.124 0.326,0.129C0.319,0.133 0.311,0.138 0.304,0.143C0.282,0.157 0.263,0.171 0.246,0.183C0.23,0.197 0.217,0.209 0.206,0.22C0.195,0.231 0.187,0.243 0.182,0.254C0.177,0.265 0.174,0.276 0.174,0.287C0.174,0.295 0.176,0.302 0.179,0.309C0.183,0.316 0.189,0.321 0.196,0.324C0.203,0.327 0.212,0.329 0.223,0.329Z" style="fill:white;fill-rule:nonzero;"/>
                </g>
                <g transform="matrix(50,0,0,50,1426.803099,1527.555724)">
                    <path d="M-0.203,0.049C-0.22,0.058 -0.232,0.06 -0.241,0.057C-0.25,0.054 -0.255,0.047 -0.256,0.037C-0.257,0.028 -0.255,0.017 -0.249,0.007C-0.245,-0.004 -0.237,-0.013 -0.226,-0.018C-0.178,-0.043 -0.132,-0.07 -0.087,-0.098C-0.042,-0.125 0,-0.154 0.041,-0.183C0.081,-0.213 0.119,-0.244 0.154,-0.275C0.19,-0.306 0.223,-0.337 0.253,-0.369C0.283,-0.402 0.31,-0.434 0.334,-0.467C0.357,-0.5 0.377,-0.533 0.394,-0.567C0.411,-0.6 0.423,-0.634 0.432,-0.667C0.441,-0.701 0.445,-0.735 0.445,-0.768C0.445,-0.778 0.449,-0.786 0.458,-0.791C0.466,-0.796 0.476,-0.799 0.487,-0.799C0.499,-0.799 0.509,-0.796 0.517,-0.791C0.526,-0.786 0.53,-0.778 0.53,-0.768C0.53,-0.732 0.525,-0.696 0.515,-0.659C0.506,-0.623 0.492,-0.587 0.474,-0.55C0.455,-0.514 0.433,-0.478 0.407,-0.442C0.38,-0.406 0.35,-0.37 0.318,-0.335C0.285,-0.3 0.249,-0.265 0.209,-0.231C0.17,-0.196 0.129,-0.163 0.085,-0.131C0.04,-0.098 -0.006,-0.067 -0.054,-0.037C-0.102,-0.008 -0.152,0.021 -0.203,0.049Z" style="fill:white;fill-rule:nonzero;"/>
                </g>
                <g transform="matrix(50,0,0,50,1427.403099,1527.555724)">
                </g>
                <g transform="matrix(50,0,0,50,1427.403099,1527.555724)">
                </g>
                <g transform="matrix(50,0,0,50,1427.403099,1527.555724)">
                    <path d="M0.241,0.019C0.208,0.019 0.182,0.013 0.162,0.001C0.141,-0.012 0.126,-0.029 0.117,-0.05C0.108,-0.071 0.103,-0.095 0.103,-0.122C0.102,-0.149 0.105,-0.177 0.112,-0.206L0.236,-0.698C0.254,-0.771 0.277,-0.825 0.304,-0.858C0.332,-0.89 0.367,-0.907 0.409,-0.907C0.431,-0.907 0.45,-0.901 0.466,-0.89C0.482,-0.878 0.494,-0.862 0.504,-0.841C0.513,-0.82 0.517,-0.796 0.517,-0.768C0.517,-0.755 0.513,-0.746 0.505,-0.74C0.496,-0.734 0.486,-0.731 0.475,-0.731C0.464,-0.731 0.454,-0.734 0.445,-0.74C0.436,-0.746 0.432,-0.755 0.432,-0.768C0.432,-0.78 0.431,-0.79 0.429,-0.799C0.427,-0.808 0.423,-0.814 0.418,-0.819C0.413,-0.824 0.407,-0.826 0.398,-0.826C0.389,-0.826 0.38,-0.822 0.371,-0.814C0.362,-0.805 0.354,-0.791 0.346,-0.77C0.337,-0.749 0.328,-0.72 0.319,-0.681L0.201,-0.212C0.197,-0.193 0.194,-0.174 0.191,-0.157C0.188,-0.139 0.188,-0.123 0.191,-0.108C0.194,-0.094 0.2,-0.083 0.21,-0.074C0.22,-0.065 0.236,-0.061 0.257,-0.061C0.274,-0.061 0.292,-0.065 0.308,-0.074C0.326,-0.083 0.342,-0.095 0.358,-0.11C0.374,-0.125 0.389,-0.143 0.403,-0.163C0.416,-0.183 0.428,-0.204 0.439,-0.227C0.449,-0.25 0.457,-0.273 0.462,-0.296C0.465,-0.307 0.467,-0.318 0.469,-0.329C0.471,-0.34 0.473,-0.352 0.474,-0.363C0.475,-0.375 0.476,-0.386 0.475,-0.397C0.462,-0.407 0.452,-0.417 0.447,-0.426C0.442,-0.436 0.439,-0.447 0.439,-0.459C0.439,-0.474 0.443,-0.485 0.452,-0.494C0.461,-0.503 0.472,-0.507 0.486,-0.507C0.497,-0.507 0.507,-0.504 0.516,-0.498C0.525,-0.492 0.532,-0.483 0.538,-0.473C0.545,-0.462 0.549,-0.448 0.552,-0.433C0.555,-0.418 0.557,-0.401 0.557,-0.382C0.557,-0.348 0.552,-0.313 0.542,-0.276C0.532,-0.239 0.518,-0.204 0.499,-0.169C0.48,-0.134 0.458,-0.102 0.432,-0.073C0.406,-0.045 0.377,-0.023 0.345,-0.006C0.312,0.011 0.278,0.019 0.241,0.019Z" style="fill:white;fill-rule:nonzero;"/>
                </g>
                <g transform="matrix(50,0,0,50,1458.103099,1527.555724)">
                    <path d="M-0.046,-0.38C-0.061,-0.38 -0.074,-0.382 -0.085,-0.385C-0.096,-0.388 -0.105,-0.39 -0.112,-0.393L-0.104,-0.466C-0.096,-0.461 -0.087,-0.457 -0.076,-0.453C-0.066,-0.449 -0.052,-0.447 -0.034,-0.447C-0.017,-0.447 -0.001,-0.451 0.017,-0.458C0.034,-0.464 0.051,-0.473 0.069,-0.482C0.087,-0.491 0.105,-0.5 0.123,-0.507C0.142,-0.514 0.161,-0.518 0.18,-0.518C0.188,-0.518 0.194,-0.514 0.197,-0.507C0.2,-0.499 0.2,-0.49 0.199,-0.48C0.197,-0.471 0.193,-0.462 0.187,-0.455C0.181,-0.447 0.172,-0.443 0.161,-0.443C0.151,-0.443 0.139,-0.44 0.124,-0.433C0.11,-0.427 0.094,-0.42 0.077,-0.412C0.06,-0.403 0.041,-0.396 0.02,-0.39C-0.001,-0.383 -0.023,-0.38 -0.046,-0.38Z" style="fill:white;fill-rule:nonzero;"/>
                </g>
                <g transform="matrix(50,0,0,50,1459.353099,1527.555724)">
                </g>
                <g transform="matrix(50,0,0,50,1459.353099,1527.555724)">
                </g>
                <g transform="matrix(50,0,0,50,1459.353099,1527.555724)">
                    <path d="M0.099,0.015C0.088,0.015 0.078,0.013 0.069,0.008C0.06,0.003 0.058,-0.005 0.061,-0.016L0.16,-0.408C0.162,-0.419 0.162,-0.427 0.159,-0.433C0.155,-0.44 0.149,-0.443 0.139,-0.443C0.131,-0.443 0.125,-0.447 0.122,-0.455C0.119,-0.462 0.118,-0.471 0.119,-0.48C0.119,-0.49 0.123,-0.499 0.13,-0.507C0.136,-0.514 0.144,-0.518 0.155,-0.518C0.178,-0.518 0.195,-0.514 0.208,-0.507C0.22,-0.5 0.229,-0.49 0.234,-0.478C0.239,-0.466 0.242,-0.452 0.242,-0.438C0.243,-0.423 0.242,-0.408 0.239,-0.394L0.228,-0.343C0.245,-0.372 0.264,-0.398 0.283,-0.42C0.302,-0.442 0.322,-0.46 0.342,-0.475C0.362,-0.49 0.383,-0.501 0.404,-0.508C0.425,-0.515 0.445,-0.519 0.466,-0.519C0.498,-0.519 0.523,-0.512 0.541,-0.497C0.56,-0.482 0.571,-0.461 0.576,-0.432C0.581,-0.404 0.578,-0.369 0.567,-0.327L0.511,-0.107C0.508,-0.096 0.507,-0.087 0.507,-0.08C0.507,-0.073 0.509,-0.068 0.512,-0.065C0.515,-0.062 0.519,-0.06 0.524,-0.06C0.531,-0.06 0.538,-0.062 0.545,-0.067C0.552,-0.071 0.558,-0.077 0.566,-0.085C0.573,-0.092 0.58,-0.101 0.587,-0.111C0.592,-0.117 0.597,-0.121 0.603,-0.122C0.608,-0.123 0.615,-0.121 0.624,-0.116C0.634,-0.109 0.64,-0.103 0.642,-0.097C0.644,-0.09 0.643,-0.084 0.64,-0.077C0.633,-0.064 0.624,-0.051 0.612,-0.036C0.599,-0.022 0.584,-0.01 0.567,0.001C0.549,0.011 0.529,0.016 0.507,0.016C0.484,0.016 0.466,0.011 0.454,0.002C0.441,-0.008 0.433,-0.021 0.429,-0.036C0.425,-0.051 0.424,-0.067 0.425,-0.085C0.427,-0.103 0.43,-0.121 0.435,-0.139L0.486,-0.346C0.491,-0.364 0.493,-0.38 0.492,-0.394C0.492,-0.408 0.488,-0.419 0.48,-0.427C0.471,-0.435 0.457,-0.439 0.438,-0.439C0.417,-0.439 0.394,-0.431 0.37,-0.416C0.347,-0.401 0.323,-0.379 0.299,-0.35C0.276,-0.321 0.253,-0.287 0.231,-0.248C0.209,-0.209 0.189,-0.165 0.17,-0.116L0.146,-0.011C0.144,-0.002 0.14,0.004 0.133,0.009C0.126,0.013 0.114,0.015 0.099,0.015Z" style="fill:white;fill-rule:nonzero;"/>
                </g>
                <g transform="matrix(50,0,0,50,1459.353099,1527.555724)">
                </g>
                <g transform="matrix(50,0,0,50,1492.903099,1527.555724)">
                </g>
            </g>
        </g>
    </g>
</svg>
