<?xml version="1.0" encoding="UTF-8" standalone="no"?>
<!DOCTYPE svg PUBLIC "-//W3C//DTD SVG 1.1//EN" "http://www.w3.org/Graphics/SVG/1.1/DTD/svg11.dtd">
<svg width="100%" height="100%" viewBox="0 0 409 409" version="1.1" xmlns="http://www.w3.org/2000/svg" xmlns:xlink="http://www.w3.org/1999/xlink" xml:space="preserve" xmlns:serif="http://www.serif.com/" style="fill-rule:evenodd;clip-rule:evenodd;stroke-linejoin:round;stroke-miterlimit:2;">
    <g transform="matrix(1,0,0,1,-1116.456938,-81.129634)">
        <g id="Green-Icon" serif:id="Green Icon">
            <g transform="matrix(0.347132,0,0,-0.347132,-1132.367453,28.663785)">
                <path d="M6746.391,-151.141L7387.286,-151.141C7535.812,-151.141 7655.386,-270.713 7655.386,-419.239L7655.386,-1060.135C7655.386,-1208.666 7535.812,-1328.234 7387.286,-1328.234L6746.391,-1328.234C6597.859,-1328.234 6478.291,-1208.666 6478.291,-1060.135L6478.291,-419.239C6478.291,-270.713 6597.859,-151.141 6746.391,-151.141Z" style="fill:url(#_Linear1);fill-rule:nonzero;"/>
            </g>
            <g transform="matrix(0.462843,0,0,-0.462843,0.607427,504.536672)">
                <path d="M2754.82,420.081C2754.16,422.324 2742.73,423.222 2740.668,423.636C2729.758,425.835 2709.453,429.859 2699.168,434.109C2615.527,463.89 2545.871,550.355 2566.68,669.57C2596.781,668.906 2619.652,665.187 2642.352,656.066C2613.578,543.578 2649.539,495.46 2768.211,437.085C2770.785,435.82 2761.047,430.613 2758.918,427.812C2758.508,427.273 2755.078,419.199 2754.82,420.081Z" style="fill:rgb(170,170,170);fill-rule:nonzero;"/>
            </g>
            <g transform="matrix(0.462843,0,0,-0.462843,0.607427,430.512783)">
                <path d="M2783.488,292.148C2786.34,292.672 2777.234,329.422 2774.594,341.824C2765.426,384.898 2746.633,441.742 2697.363,468.801C2639.094,500.801 2611.602,498.035 2566.652,509.508C2609.266,576.856 2828.992,646.898 2806.191,355.731C2803.938,326.957 2798.422,292.481 2796.844,283.777C2796.512,281.938 2783.18,292.09 2783.488,292.148Z" style="fill:white;fill-rule:nonzero;"/>
            </g>
            <g transform="matrix(0.462843,0,0,-0.462843,0.607427,638.325643)">
                <path d="M2752.723,694.988C2752.785,695.027 2738.441,694.308 2735.18,693.449C2723.922,690.473 2718,683.191 2708.016,677.254C2701.441,673.34 2691.543,669.945 2684.203,667.594C2655.625,658.441 2632.504,669.547 2605.879,679.816C2597.301,683.125 2579.73,687.465 2578,688.625C2574.617,690.894 2589.973,696.621 2591.672,697.191C2609.582,703.18 2628.531,713.457 2647.332,715.293C2682.281,718.703 2716.672,719.387 2751.254,711.613C2755.543,710.652 2756.18,708.617 2756.391,707.289C2756.496,706.613 2752.703,694.976 2752.723,694.988Z" style="fill:white;fill-rule:nonzero;"/>
            </g>
            <g transform="matrix(0.462843,0,0,-0.462843,0.607427,729.250712)">
                <path d="M2792.785,863.074C2791.785,862.726 2802.777,843.589 2805.309,838.976C2811.93,826.91 2828.238,778.504 2836.328,765.246C2847.387,747.117 2857.043,730.902 2888.34,717.875C2907.691,709.82 2965.445,699.672 2968.828,704.722C2972.738,710.55 2936.359,760.035 2918.375,772.089C2901.152,783.636 2898.016,787.875 2880.445,799.703C2865.328,809.879 2840.617,831.379 2828.625,845.027C2820.738,854.004 2810.941,865.234 2805.82,874.605" style="fill:white;fill-rule:nonzero;"/>
            </g>
            <g transform="matrix(0.462843,0,0,-0.462843,0.607427,697.911604)">
                <path d="M2805.82,806.258C2806.957,803.184 2844.668,780.481 2855.773,773.075C2864.535,767.235 2905.59,743.368 2917.777,738.059C2933.199,731.337 2947.809,722.887 2963.688,717.258C2979.645,711.602 3062.504,682.645 3076.02,702.512C3083.375,713.321 3066.723,810.938 3061.836,807.063C3050.047,797.708 3005.805,764.051 2956.309,767.348C2915.711,770.055 2879.539,790.411 2843.996,808.602C2835.234,813.083 2825.75,819.848 2816.891,823.922" style="fill:rgb(170,170,170);fill-rule:nonzero;"/>
            </g>
            <g transform="matrix(0.462843,0,0,-0.462843,0.607427,598.255462)">
                <path d="M2820.75,618.09C2820.488,617.727 2826.031,618.418 2827.027,618.578C2830.453,619.117 2862.75,623.055 2874.465,625.192C3024.781,652.598 3036.758,618.387 3059.379,582.008C3077.082,553.547 3075.789,513.547 3075.891,487.039C3238.316,699.668 3079.41,804.215 2818.848,634.719" style="fill:white;fill-rule:nonzero;"/>
            </g>
            <g transform="matrix(0.462843,0,0,-0.462843,0.607427,626.037158)">
                <path d="M2758.398,691.844C2753.207,689.13 2748.914,668.333 2752.305,662.848C2761.781,647.493 2784.977,633.602 2799.855,642.692C2810.535,649.216 2818.078,665.044 2820.863,679.505C2822.859,689.895 2819.949,702.114 2798.441,710.934C2787.008,715.622 2783.59,717.676 2774.059,708.848" style="fill:white;fill-rule:nonzero;"/>
            </g>
        </g>
    </g>
    <defs>
        <linearGradient id="_Linear1" x1="0" y1="0" x2="1" y2="0" gradientUnits="userSpaceOnUse" gradientTransform="matrix(552.612793,-1039.31337,-1039.31337,-552.612793,6790.530762,-220.031971)"><stop offset="0" style="stop-color:rgb(0,158,1);stop-opacity:1"/><stop offset="1" style="stop-color:rgb(35,46,35);stop-opacity:1"/></linearGradient>
    </defs>
</svg>
